<svg xmlns="http://www.w3.org/2000/svg" viewBox="0 0 24 24" width="24" height="24" fill="#C08A6B" stroke="none"><path d="M14 1H5.5a2 2 0 0 0-2 2v18a2 2 0 0 0 2 2h13a2 2 0 0 0 2-2V7.5z"/><path d="M14 1v4.5a2 2 0 0 0 2 2h4.5z" fill="#5C463D"/><g transform="translate(5.52 7.92) scale(0.54)" fill="none" stroke="#5C463D" stroke-width="3.7" stroke-linecap="round" stroke-linejoin="round"><rect x="2.5" y="2.8" width="19" height="5.4" rx="2"/><path d="M4.6 8.2v11a2 2 0 0 0 2 2h10.8a2 2 0 0 0 2-2v-11"/><path d="M9.9 12.4h4.2"/></g></svg>
