<svg xmlns="http://www.w3.org/2000/svg" viewBox="0 0 24 24" width="24" height="24" fill="#7FAE8E" stroke="none"><path d="M1 19.6V4.4a2 2 0 0 1 2-2h5.6l2.9 3.3H21a2 2 0 0 1 2 2v11.9a2 2 0 0 1-2 2H3a2 2 0 0 1-2-2z" fill="#42544B"/><path d="M3.7 21.6a2 2 0 0 1-1.9-2.6l2.7-7.8A2 2 0 0 1 6.4 9.8h14a2 2 0 0 1 1.9 2.6l-2.7 7.8a2 2 0 0 1-1.9 1.4z"/><g transform="translate(7.56 10.86) scale(0.42)" fill="none" stroke="#42544B" stroke-width="4.76" stroke-linecap="round" stroke-linejoin="round"><path d="M12 2.3 20.6 7.3v9.4L12 21.7 3.4 16.7V7.3z"/></g></svg>
