<svg xmlns="http://www.w3.org/2000/svg" viewBox="0 0 24 24" width="24" height="24" fill="#8BE9FD" stroke="none"><path d="M14 .5H5a2 2 0 0 0-2 2v19a2 2 0 0 0 2 2h14a2 2 0 0 0 2-2V7.5z"/><path d="M14 .5v5a2 2 0 0 0 2 2h5z" fill="#3C5762"/><g transform="translate(5.16 7.96) scale(0.57)" fill="none" stroke="#3C5762" stroke-width="3.51" stroke-linecap="round" stroke-linejoin="round"><ellipse cx="12" cy="5.4" rx="8.6" ry="3.4"/><path d="M3.4 5.4v13.2c0 1.9 3.9 3.4 8.6 3.4s8.6-1.5 8.6-3.4V5.4"/></g></svg>
